<svg width="18" height="17" viewBox="0 0 18 17" fill="none" xmlns="http://www.w3.org/2000/svg">
<path d="M17.0649 10.9814C17.1931 10.8532 17.2803 10.6899 17.3157 10.5121C17.351 10.3343 17.3329 10.15 17.2635 9.98257C17.1942 9.81509 17.0767 9.67194 16.926 9.57122C16.7753 9.47049 16.5981 9.41671 16.4168 9.41667H10.0002V11.25H14.204L10.2687 15.1852C10.1406 15.3134 10.0533 15.4768 10.018 15.6546C9.98261 15.8323 10.0008 16.0166 10.0701 16.1841C10.1395 16.3516 10.2569 16.4947 10.4077 16.5955C10.5584 16.6962 10.7356 16.75 10.9168 16.75H17.3335V14.9167H13.1297L17.0649 10.9814ZM5.41683 1.1575H3.5835V12.1575H0.833496L4.50016 15.8242L8.16683 12.1575H5.41683V1.1575ZM14.5835 0.25H12.7502C12.3679 0.25 12.026 0.487417 11.8912 0.844917L9.37041 7.56683H11.3293L12.0104 5.75H15.3223L16.0034 7.56592H17.9623L15.4415 0.844C15.3759 0.669479 15.2586 0.519122 15.1053 0.41299C14.952 0.306859 14.7699 0.25 14.5835 0.25ZM12.6979 3.91667L13.3854 2.08333H13.9473L14.6348 3.91667H12.6979Z" fill="#7B8CB5"/>
</svg>
